<svg xmlns="http://www.w3.org/2000/svg" viewBox="0 0 16 16" shape-rendering="crispEdges"><rect width="16" height="16" fill="#390d6b"></rect><g fill="#e2a413"><rect x="3" y="2" width="1" height="1"></rect><rect x="2" y="3" width="1" height="1"></rect><rect x="3" y="3" width="1" height="1"></rect><rect x="4" y="3" width="1" height="1"></rect><rect x="3" y="4" width="1" height="1"></rect><rect x="8" y="2" width="1" height="1"></rect><rect x="7" y="3" width="1" height="1"></rect><rect x="8" y="3" width="1" height="1"></rect><rect x="9" y="3" width="1" height="1"></rect><rect x="8" y="4" width="1" height="1"></rect><rect x="13" y="2" width="1" height="1"></rect><rect x="12" y="3" width="1" height="1"></rect><rect x="13" y="3" width="1" height="1"></rect><rect x="14" y="3" width="1" height="1"></rect><rect x="13" y="4" width="1" height="1"></rect></g><g fill="#ffffff"><rect x="1" y="9" width="1" height="1"></rect><rect x="2" y="9" width="1" height="1"></rect><rect x="1" y="10" width="1" height="1"></rect><rect x="3" y="10" width="1" height="1"></rect><rect x="1" y="11" width="1" height="1"></rect><rect x="2" y="11" width="1" height="1"></rect><rect x="1" y="12" width="1" height="1"></rect><rect x="3" y="12" width="1" height="1"></rect><rect x="1" y="13" width="1" height="1"></rect><rect x="2" y="13" width="1" height="1"></rect><rect x="5" y="9" width="1" height="1"></rect><rect x="6" y="9" width="1" height="1"></rect><rect x="5" y="10" width="1" height="1"></rect><rect x="7" y="10" width="1" height="1"></rect><rect x="5" y="11" width="1" height="1"></rect><rect x="6" y="11" width="1" height="1"></rect><rect x="5" y="12" width="1" height="1"></rect><rect x="7" y="12" width="1" height="1"></rect><rect x="5" y="13" width="1" height="1"></rect><rect x="7" y="13" width="1" height="1"></rect><rect x="10" y="9" width="1" height="1"></rect><rect x="9" y="10" width="1" height="1"></rect><rect x="11" y="10" width="1" height="1"></rect><rect x="9" y="11" width="1" height="1"></rect><rect x="10" y="11" width="1" height="1"></rect><rect x="11" y="11" width="1" height="1"></rect><rect x="9" y="12" width="1" height="1"></rect><rect x="11" y="12" width="1" height="1"></rect><rect x="9" y="13" width="1" height="1"></rect><rect x="11" y="13" width="1" height="1"></rect><rect x="13" y="9" width="1" height="1"></rect><rect x="14" y="9" width="1" height="1"></rect><rect x="13" y="10" width="1" height="1"></rect><rect x="15" y="10" width="1" height="1"></rect><rect x="13" y="11" width="1" height="1"></rect><rect x="15" y="11" width="1" height="1"></rect><rect x="13" y="12" width="1" height="1"></rect><rect x="15" y="12" width="1" height="1"></rect><rect x="13" y="13" width="1" height="1"></rect><rect x="14" y="13" width="1" height="1"></rect></g></svg>