<svg xmlns="http://www.w3.org/2000/svg" viewBox="0 0 1692 1260" role="img" aria-label="Brad Hochgesang for State Senate">
<title>Brad Hochgesang for State Senate</title>
<g transform="matrix(1 0 0 -1 0 1260)"><path d="M0.968 0 L1692 0 L1692 1260 L0.968 1260 Z" fill="#390d6b"></path><path d="M888.471 983.944 L863.624 1002.613 L838.19 984.752 L848.268 1014.152 L823.421 1032.821 L854.496 1032.322 L864.574 1061.722 L873.702 1032.013 L904.777 1031.514 L879.343 1013.652 Z" fill="#e2a413"></path><path d="M1022.239 948.468 L1006.195 975.086 L975.922 968.053 L996.28 991.536 L980.236 1018.154 L1008.861 1006.05 L1029.218 1029.534 L1026.552 998.57 L1055.178 986.466 L1024.905 979.433 Z" fill="#e2a413"></path><path d="M1132.976 865.464 L1128.072 896.154 L1097.368 900.973 L1125.041 915.121 L1120.136 945.811 L1142.143 923.865 L1169.815 938.013 L1155.744 910.302 L1177.75 888.356 L1147.047 893.175 Z" fill="#e2a413"></path><path d="M1204.556 747.022 L1211.505 777.314 L1184.843 793.284 L1215.8 796.036 L1222.75 826.328 L1234.933 797.736 L1265.89 800.488 L1242.462 780.066 L1254.646 751.474 L1227.983 767.444 Z" fill="#e2a413"></path><path d="M751.155 966.728 L721.124 974.729 L704.233 948.642 L702.563 979.676 L672.531 987.678 L701.531 998.856 L699.862 1029.89 L719.454 1005.764 L748.454 1016.941 L731.563 990.853 Z" fill="#e2a413"></path><path d="M630.286 899.325 L599.444 895.494 L593.556 864.978 L580.382 893.127 L549.54 889.296 L572.241 910.523 L559.067 938.674 L586.27 923.643 L608.971 944.871 L603.083 914.354 Z" fill="#e2a413"></path><path d="M543.469 791.552 L516.307 776.447 L522.28 745.947 L499.521 767.111 L472.359 752.006 L485.455 780.192 L462.696 801.356 L493.548 797.611 L506.644 825.797 L512.616 795.297 Z" fill="#e2a413"></path><path d="M889.682 202.124 L864.372 220.16 L839.397 201.662 L848.729 231.307 L823.419 249.343 L854.496 249.628 L863.828 279.273 L873.704 249.805 L904.781 250.091 L879.807 231.592 Z" fill="#e2a413"></path><path d="M788.426 218.029 L771.914 230.08 L755.35 218.1 L761.708 237.528 L745.196 249.579 L765.638 249.535 L771.997 268.964 L778.272 249.508 L798.715 249.464 L782.151 237.484 Z" fill="#e2a413"></path><path d="M972.603 218.124 L956.022 230.08 L939.527 218.006 L945.774 237.47 L929.193 249.427 L949.636 249.5 L955.883 268.964 L962.27 249.545 L982.712 249.618 L966.217 237.543 Z" fill="#e2a413"></path><path d="M875.057 870.652 C878.875 873.784 880.668 879.702 881.119 884.467 C881.241 885.743 882.07 886.519 880.523 887.501 C876.669 882.066 875.508 877.278 875.057 870.652 M875.892 908.571 C876.021 904.23 875.711 899.839 875.89 895.494 C875.994 892.968 876.257 894.888 876.734 895.088 C879.724 896.34 882.671 901.202 885.584 903.516 C887.172 904.777 889.3 905.251 890.647 906.881 C891.606 905.034 889.059 902.52 888.535 900.987 C887.146 896.921 887.182 891.5 888.535 887.505 C890.324 882.224 895.105 876.913 894.444 870.656 L895.687 872.336 L898.218 880.757 C912.467 862.824 903.967 826.45 875.897 836.955 C875.739 838.424 877.93 837.911 878.754 838.561 C879.498 839.148 879.123 840.502 879.511 840.859 C881.096 842.315 884.25 843.88 885.496 845.462 C887.538 848.056 889.499 855.083 889.401 858.388 C889.328 860.841 886.603 872.654 885.151 874.019 C882.601 876.416 884.302 870.696 884.321 870.23 C884.822 858.014 882.586 844.625 869.805 840.083 C862.918 837.636 859.455 839.401 853.211 842.535 C850.846 843.722 850.594 845.885 848.075 845.372 C847.863 845.912 848.365 846.73 847.232 847.058 C842.053 859.31 841.631 862.886 845.992 875.683 C846.786 878.012 848.562 880.172 849.367 882.421 C850.542 885.702 849.918 892.809 853.143 884.14 C854.767 883.901 853.636 885.975 853.976 886.662 C854.384 887.49 856.434 887.392 855.661 890.322 C855.5 890.933 853.118 890.612 853.981 893.7 C854.144 894.282 855.494 894.181 855.644 894.819 C856.51 898.505 853.39 901.965 859.04 900.99 C861.051 904.109 854.554 905.967 855.68 907.712 C856.351 908.751 862.487 910.997 860.719 914.469 C862.281 916.362 864.752 919.73 865.379 922.028 C865.907 923.963 865.092 927.17 866.609 927.945 C869.956 920.865 874.31 916.627 875.892 908.571" fill="#e2a413"></path><path d="M848.075 845.373 C848.869 843.357 847.973 838.295 846.426 837.326 C845.321 836.634 843.681 837.269 842.79 836.903 C842.033 836.592 842.188 835.419 841.591 835.274 C838.25 834.462 833.813 837.017 831.195 839.032 C829.074 840.666 824.298 847.097 823.308 849.687 C820.851 856.118 820.784 861.673 822.177 868.313 C823.287 873.606 825.369 879.96 830.374 882.449 L830.374 869.81 L838.73 894.739 C839.533 899.36 837.649 903.501 836.278 907.724 C837.183 908.658 844.309 901.198 845.071 900.09 C852.732 888.958 840.076 882.09 837.693 872.183 C835.925 864.831 837.589 858.121 841.468 851.831 C843.419 848.667 844.253 847.919 847.232 847.058 C847.438 846.572 846.972 845.568 848.075 845.373" fill="#e2a413"></path><path d="M896.122 819.251 L889.222 809.717 C884.687 800.735 882.127 791.192 880.471 781.299 L844.701 781.328 C843.986 795.172 838.899 809.002 829.531 819.251 Z" fill="#e2a413"></path><path d="M900.951 831.619 C904.029 829.012 903.814 825.121 899.947 823.408 L824.894 823.463 C822.227 823.832 821.146 828.219 822.348 830.216 C823.985 832.934 834.92 831.706 838.373 831.898 C840.022 831.99 841.609 832.708 843.404 832.767 C862.497 833.403 881.825 831.096 900.951 831.619" fill="#e2a413"></path><path d="M877.578 766.164 C880.27 752.098 870.515 742.138 856.281 745.987 C855.655 746.156 855.651 747.228 855.376 747.334 C854.396 747.714 853.205 747.506 852.569 747.914 C848.771 750.35 847.372 761.784 848.076 766.164 Z" fill="#e2a413"></path><path d="M883.057 777.119 C886.245 776.127 883.06 769.535 882.636 769.535 L844.283 769.535 C840.464 769.535 839.916 777.119 842.597 777.119 Z" fill="#e2a413"></path><path d="M860.719 914.47 C862.487 910.998 856.351 908.751 855.68 907.712 C854.554 905.967 861.051 904.11 859.04 900.991 C853.39 901.966 856.51 898.506 855.644 894.82 C855.494 894.181 854.144 894.283 853.981 893.7 C853.118 890.613 855.5 890.933 855.661 890.323 C856.434 887.393 854.384 887.49 853.976 886.663 C851.766 894.768 850.206 902.018 855.293 909.361 C856.747 911.459 859.416 912.892 860.719 914.47" fill="#e2a413"></path><path d="M1349.219 622.119 C1349.219 354.195 1132.024 137 864.1 137 C596.176 137 378.981 354.195 378.981 622.119 C378.981 890.043 596.176 1107.238 864.1 1107.238 C1132.024 1107.238 1349.219 890.043 1349.219 622.119 Z" fill="none" stroke="#e2a413" stroke-width="19"></path><path d="M606.305 498.972 L620.561 498.972 L620.561 448.572 L606.305 448.572 Z M606.305 448.571 M585.858 480.035 L607.314 480.035 L607.314 468.227 L585.858 468.227 Z M585.858 468.228 M572.681 498.972 L586.937 498.972 L586.937 448.572 L572.681 448.572 Z" fill="#e2a413"></path><path d="M660.593 459.371 C662.512 459.371 664.301 459.706 665.957 460.379 C667.613 461.051 669.053 462.022 670.277 463.295 C671.501 464.566 672.461 466.078 673.157 467.831 C673.852 469.583 674.201 471.562 674.201 473.771 C674.201 475.978 673.852 477.959 673.157 479.711 C672.461 481.463 671.501 482.975 670.277 484.247 C669.053 485.518 667.613 486.49 665.957 487.163 C664.301 487.835 662.512 488.171 660.593 488.171 C658.673 488.171 656.885 487.835 655.229 487.163 C653.573 486.49 652.12 485.518 650.873 484.247 C649.624 482.975 648.665 481.463 647.993 479.711 C647.32 477.959 646.985 475.978 646.985 473.771 C646.985 471.562 647.32 469.583 647.993 467.831 C648.665 466.078 649.624 464.566 650.873 463.295 C652.12 462.022 653.573 461.051 655.229 460.379 C656.885 459.706 658.673 459.371 660.593 459.371 M660.593 447.563 C656.608 447.563 652.9 448.211 649.469 449.507 C646.036 450.804 643.072 452.64 640.577 455.016 C638.081 457.392 636.124 460.175 634.709 463.367 C633.293 466.558 632.585 470.051 632.585 473.844 C632.585 477.587 633.293 481.043 634.709 484.211 C636.124 487.379 638.081 490.151 640.577 492.527 C643.072 494.903 646.024 496.739 649.433 498.035 C652.841 499.331 656.561 499.979 660.593 499.979 C664.625 499.979 668.344 499.331 671.753 498.035 C675.16 496.739 678.113 494.914 680.609 492.563 C683.104 490.211 685.061 487.451 686.477 484.283 C687.892 481.115 688.601 477.635 688.601 473.844 C688.601 470.003 687.905 466.487 686.513 463.295 C685.12 460.102 683.165 457.33 680.645 454.979 C678.125 452.627 675.16 450.804 671.753 449.507 C668.344 448.211 664.625 447.563 660.593 447.563" fill="#e2a413"></path><path d="M725.753 447.564 C721.768 447.564 718.096 448.201 714.737 449.472 C711.377 450.742 708.448 452.542 705.953 454.871 C703.457 457.2 701.513 459.97 700.121 463.188 C698.728 466.403 698.033 469.931 698.033 473.771 C698.033 477.612 698.728 481.138 700.121 484.356 C701.513 487.571 703.457 490.343 705.953 492.67 C708.448 494.999 711.377 496.799 714.737 498.071 C718.096 499.343 721.768 499.98 725.753 499.98 C730.408 499.98 734.573 499.174 738.245 497.568 C741.917 495.96 744.977 493.595 747.425 490.475 L738.353 482.268 C736.721 484.186 734.92 485.652 732.953 486.66 C730.984 487.667 728.824 488.17 726.473 488.17 C724.409 488.17 722.513 487.835 720.785 487.164 C719.057 486.491 717.581 485.518 716.357 484.247 C715.133 482.975 714.172 481.451 713.477 479.674 C712.781 477.898 712.433 475.932 712.433 473.771 C712.433 471.612 712.781 469.643 713.477 467.867 C714.172 466.09 715.133 464.566 716.357 463.295 C717.581 462.023 719.057 461.051 720.785 460.379 C722.513 459.707 724.409 459.371 726.473 459.371 C728.824 459.371 730.984 459.876 732.953 460.883 C734.92 461.891 736.721 463.379 738.353 465.347 L747.425 457.14 C744.977 454.018 741.917 451.643 738.245 450.011 C734.573 448.379 730.408 447.564 725.753 447.564" fill="#e2a413"></path><path d="M791.417 498.972 L805.673 498.972 L805.673 448.572 L791.417 448.572 Z M791.417 448.571 M770.969 480.035 L792.425 480.035 L792.425 468.227 L770.969 468.227 Z M770.969 468.228 M757.793 498.972 L772.049 498.972 L772.049 448.572 L757.793 448.572 Z" fill="#e2a413"></path><path d="M866.656 453.972 L853.984 455.844 L853.984 474.852 L866.656 474.852 Z M845.488 447.564 C841.456 447.564 837.76 448.201 834.4 449.472 C831.04 450.743 828.111 452.543 825.616 454.871 C823.12 457.2 821.176 459.971 819.784 463.188 C818.391 466.403 817.696 469.931 817.696 473.772 C817.696 477.612 818.391 481.139 819.784 484.356 C821.176 487.571 823.132 490.343 825.652 492.671 C828.172 494.999 831.135 496.799 834.544 498.072 C837.952 499.343 841.719 499.98 845.847 499.98 C850.552 499.98 854.776 499.188 858.52 497.604 C862.263 496.02 865.36 493.74 867.807 490.764 L858.736 482.556 C857.008 484.475 855.147 485.891 853.156 486.804 C851.164 487.715 848.944 488.171 846.496 488.171 C844.336 488.171 842.367 487.835 840.592 487.163 C838.815 486.491 837.303 485.519 836.055 484.247 C834.807 482.975 833.835 481.451 833.139 479.675 C832.443 477.899 832.095 475.932 832.095 473.772 C832.095 471.659 832.443 469.715 833.139 467.94 C833.835 466.163 834.807 464.639 836.055 463.368 C837.303 462.095 838.803 461.111 840.555 460.415 C842.307 459.719 844.239 459.371 846.351 459.371 C848.464 459.371 850.528 459.719 852.544 460.415 C854.559 461.111 856.599 462.299 858.664 463.98 L866.656 453.972 C863.727 451.908 860.38 450.324 856.612 449.22 C852.843 448.116 849.135 447.564 845.488 447.564" fill="#e2a413"></path><path d="M893.367 479.459 L916.767 479.459 L916.767 468.875 L893.367 468.875 Z M893.367 468.875 M880.336 448.571 L880.336 498.972 L919.792 498.972 L919.792 487.883 L894.376 487.883 L894.376 459.659 L920.728 459.659 L920.728 448.571 Z" fill="#e2a413"></path><path d="M950.896 447.564 C946.72 447.564 942.724 448.081 938.908 449.112 C935.092 450.143 932.007 451.451 929.656 453.035 L934.336 463.619 C936.591 462.179 939.196 460.992 942.148 460.056 C945.1 459.119 948.04 458.652 950.968 458.652 C952.984 458.652 954.58 458.819 955.756 459.155 C956.932 459.491 957.795 459.97 958.348 460.595 C958.899 461.218 959.176 461.963 959.176 462.828 C959.176 463.931 958.647 464.808 957.592 465.456 C956.536 466.104 955.156 466.655 953.452 467.112 C951.748 467.568 949.899 467.999 947.908 468.407 C945.916 468.814 943.887 469.355 941.824 470.028 C939.759 470.7 937.887 471.587 936.208 472.691 C934.527 473.795 933.171 475.236 932.14 477.011 C931.107 478.787 930.592 481.018 930.592 483.708 C930.592 486.683 931.408 489.395 933.041 491.843 C934.671 494.292 937.144 496.258 940.456 497.747 C943.768 499.234 947.896 499.98 952.84 499.98 C956.152 499.98 959.403 499.607 962.596 498.864 C965.788 498.119 968.608 497.003 971.056 495.516 L966.736 485.003 C964.335 486.347 961.959 487.332 959.608 487.956 C957.255 488.578 954.975 488.891 952.768 488.891 C950.799 488.891 949.215 488.674 948.016 488.244 C946.816 487.811 945.952 487.258 945.424 486.587 C944.895 485.915 944.632 485.194 944.632 484.427 C944.632 483.275 945.16 482.376 946.216 481.727 C947.271 481.08 948.639 480.551 950.32 480.143 C952 479.736 953.859 479.316 955.9 478.883 C957.94 478.451 959.968 477.912 961.984 477.263 C964 476.616 965.86 475.751 967.564 474.67 C969.267 473.59 970.648 472.174 971.704 470.422 C972.759 468.67 973.288 466.475 973.288 463.835 C973.288 460.907 972.46 458.208 970.804 455.736 C969.148 453.263 966.664 451.282 963.352 449.795 C960.041 448.308 955.887 447.564 950.896 447.564" fill="#e2a413"></path><path d="M990.423 458.436 L994.095 468.875 L1018.719 468.875 L1022.391 458.436 Z M978.255 448.572 L1000.503 498.972 L1014.543 498.972 L1036.862 448.572 L1022.03 448.572 L1004.607 491.988 L1010.223 491.988 L992.799 448.572 Z" fill="#e2a413"></path><path d="M1045.503 448.571 L1045.503 498.971 L1057.238 498.971 L1084.959 465.419 L1079.415 465.419 L1079.415 498.971 L1093.383 498.971 L1093.383 448.571 L1081.647 448.571 L1053.855 482.123 L1059.399 482.123 L1059.399 448.571 Z" fill="#e2a413"></path><path d="M1154.366 453.972 L1141.694 455.844 L1141.694 474.852 L1154.366 474.852 Z M1133.198 447.564 C1129.166 447.564 1125.47 448.201 1122.11 449.472 C1118.75 450.743 1115.821 452.543 1113.326 454.871 C1110.83 457.2 1108.886 459.971 1107.494 463.188 C1106.101 466.403 1105.406 469.931 1105.406 473.772 C1105.406 477.612 1106.101 481.139 1107.494 484.356 C1108.886 487.571 1110.842 490.343 1113.362 492.671 C1115.882 494.999 1118.845 496.799 1122.254 498.072 C1125.662 499.343 1129.429 499.98 1133.557 499.98 C1138.262 499.98 1142.486 499.188 1146.23 497.604 C1149.973 496.02 1153.07 493.74 1155.517 490.764 L1146.446 482.556 C1144.718 484.475 1142.857 485.891 1140.866 486.804 C1138.874 487.715 1136.654 488.171 1134.206 488.171 C1132.046 488.171 1130.077 487.835 1128.302 487.163 C1126.525 486.491 1125.013 485.519 1123.765 484.247 C1122.517 482.975 1121.545 481.451 1120.849 479.675 C1120.153 477.899 1119.805 475.932 1119.805 473.772 C1119.805 471.659 1120.153 469.715 1120.849 467.94 C1121.545 466.163 1122.517 464.639 1123.765 463.368 C1125.013 462.095 1126.513 461.111 1128.265 460.415 C1130.017 459.719 1131.949 459.371 1134.061 459.371 C1136.174 459.371 1138.238 459.719 1140.254 460.415 C1142.269 461.111 1144.309 462.299 1146.374 463.98 L1154.366 453.972 C1151.437 451.908 1148.09 450.324 1144.322 449.22 C1140.553 448.116 1136.845 447.564 1133.198 447.564" fill="#e2a413"></path><path d="M590.422 564.08 L626.942 564.08 C634.567 564.08 640.286 565.362 644.102 567.93 C647.914 570.494 649.822 574.42 649.822 579.7 C649.822 584.98 647.914 588.902 644.102 591.47 C640.286 594.034 634.567 595.32 626.942 595.32 L587.342 595.32 L587.342 625.46 L620.342 625.46 C627.674 625.46 633.174 626.704 636.842 629.2 C640.506 631.692 642.342 635.36 642.342 640.2 C642.342 645.332 640.506 649.11 636.842 651.53 C633.174 653.95 627.674 655.16 620.342 655.16 L590.422 655.16 Z M547.522 532.62 L547.522 686.62 L625.842 686.62 C646.226 686.62 661.406 682.88 671.382 675.4 C681.354 667.92 686.342 658.24 686.342 646.36 C686.342 638.44 684.286 631.473 680.182 625.46 C676.074 619.444 670.206 614.752 662.582 611.38 C654.954 608.005 646.006 606.32 635.742 606.32 L639.922 616.88 C650.627 616.88 660.052 615.23 668.192 611.93 C676.332 608.63 682.636 603.824 687.112 597.52 C691.584 591.212 693.822 583.66 693.822 574.86 C693.822 561.66 688.432 551.32 677.652 543.84 C666.872 536.36 651.067 532.62 630.242 532.62 Z" fill="#ffffff"></path><path d="M590.422 564.08 L626.942 564.08 C634.567 564.08 640.286 565.362 644.102 567.93 C647.914 570.494 649.822 574.42 649.822 579.7 C649.822 584.98 647.914 588.902 644.102 591.47 C640.286 594.034 634.567 595.32 626.942 595.32 L587.342 595.32 L587.342 625.46 L620.342 625.46 C627.674 625.46 633.174 626.704 636.842 629.2 C640.506 631.692 642.342 635.36 642.342 640.2 C642.342 645.332 640.506 649.11 636.842 651.53 C633.174 653.95 627.674 655.16 620.342 655.16 L590.422 655.16 L590.422 564.08 Z M547.522 532.62 L547.522 686.62 L625.842 686.62 C646.226 686.62 661.406 682.88 671.382 675.4 C681.354 667.92 686.342 658.24 686.342 646.36 C686.342 638.44 684.286 631.473 680.182 625.46 C676.074 619.444 670.206 614.752 662.582 611.38 C654.954 608.005 646.006 606.32 635.742 606.32 L639.922 616.88 C650.627 616.88 660.052 615.23 668.192 611.93 C676.332 608.63 682.636 603.824 687.112 597.52 C691.584 591.212 693.822 583.66 693.822 574.86 C693.822 561.66 688.432 551.32 677.652 543.84 C666.872 536.36 651.067 532.62 630.242 532.62 L547.522 532.62 Z" fill="none" stroke="#ffffff" stroke-width="1"></path><path d="M793.621 532.62 L755.341 588.72 L801.761 588.72 L840.261 532.62 Z M742.141 586.96 L722.561 607.2 L766.121 607.2 C775.213 607.2 782.033 609.18 786.581 613.14 C791.125 617.1 793.401 622.672 793.401 629.86 C793.401 636.752 791.125 642.215 786.581 646.25 C782.033 650.282 775.213 652.3 766.121 652.3 L722.561 652.3 L742.141 672.32 Z M698.581 532.62 L698.581 686.62 L767.221 686.62 C789.805 686.62 807.113 681.56 819.141 671.44 C831.165 661.32 837.181 647.46 837.181 629.86 C837.181 617.98 834.431 607.86 828.931 599.5 C823.431 591.14 815.545 584.723 805.281 580.25 C795.013 575.774 782.841 573.54 768.761 573.54 L722.561 573.54 L742.141 592.02 L742.141 532.62 Z" fill="#ffffff"></path><path d="M793.621 532.62 L755.341 588.72 L801.761 588.72 L840.261 532.62 L793.621 532.62 Z M742.141 586.96 L722.561 607.2 L766.121 607.2 C775.213 607.2 782.033 609.18 786.581 613.14 C791.125 617.1 793.401 622.672 793.401 629.86 C793.401 636.752 791.125 642.215 786.581 646.25 C782.033 650.282 775.213 652.3 766.121 652.3 L722.561 652.3 L742.141 672.32 L742.141 586.96 Z M698.581 532.62 L698.581 686.62 L767.221 686.62 C789.805 686.62 807.113 681.56 819.141 671.44 C831.165 661.32 837.181 647.46 837.181 629.86 C837.181 617.98 834.431 607.86 828.931 599.5 C823.431 591.14 815.545 584.723 805.281 580.25 C795.013 575.774 782.841 573.54 768.761 573.54 L722.561 573.54 L742.141 592.02 L742.141 532.62 L698.581 532.62 Z" fill="none" stroke="#ffffff" stroke-width="1"></path><path d="M877.739 562.76 L888.959 594.66 L964.199 594.66 L975.419 562.76 Z M840.559 532.62 L908.539 686.62 L951.438 686.62 L1019.638 532.62 L974.319 532.62 L921.079 665.281 L938.239 665.281 L884.999 532.62 Z" fill="#ffffff"></path><path d="M877.739 562.76 L888.959 594.66 L964.199 594.66 L975.419 562.76 L877.739 562.76 Z M840.559 532.62 L908.539 686.62 L951.438 686.62 L1019.638 532.62 L974.319 532.62 L921.079 665.281 L938.239 665.281 L884.999 532.62 L840.559 532.62 Z" fill="none" stroke="#ffffff" stroke-width="1"></path><path d="M1065.618 567.38 L1092.678 567.38 C1101.622 567.38 1109.36 569.065 1115.888 572.441 C1122.412 575.813 1127.51 580.691 1131.178 587.07 C1134.842 593.45 1136.678 600.965 1136.678 609.62 C1136.678 618.565 1134.842 626.154 1131.178 632.39 C1127.51 638.622 1122.412 643.425 1115.888 646.8 C1109.36 650.172 1101.622 651.86 1092.678 651.86 L1065.618 651.86 Z M1022.058 532.62 L1022.058 686.62 L1094.878 686.62 C1111.742 686.62 1126.63 683.465 1139.538 677.16 C1152.442 670.853 1162.527 661.981 1169.788 650.54 C1177.048 639.101 1180.678 625.46 1180.678 609.62 C1180.678 593.925 1177.048 580.322 1169.788 568.811 C1162.527 557.295 1152.442 548.385 1139.538 542.08 C1126.63 535.773 1111.742 532.62 1094.878 532.62 Z" fill="#ffffff"></path><path d="M1065.618 567.38 L1092.678 567.38 C1101.622 567.38 1109.36 569.065 1115.888 572.441 C1122.412 575.813 1127.51 580.691 1131.178 587.07 C1134.842 593.45 1136.678 600.965 1136.678 609.62 C1136.678 618.565 1134.842 626.154 1131.178 632.39 C1127.51 638.622 1122.412 643.425 1115.888 646.8 C1109.36 650.172 1101.622 651.86 1092.678 651.86 L1065.618 651.86 L1065.618 567.38 Z M1022.058 532.62 L1022.058 686.62 L1094.878 686.62 C1111.742 686.62 1126.63 683.465 1139.538 677.16 C1152.442 670.853 1162.527 661.981 1169.788 650.54 C1177.048 639.101 1180.678 625.46 1180.678 609.62 C1180.678 593.925 1177.048 580.322 1169.788 568.811 C1162.527 557.295 1152.442 548.385 1139.538 542.08 C1126.63 535.773 1111.742 532.62 1094.878 532.62 L1022.058 532.62 Z" fill="none" stroke="#ffffff" stroke-width="1"></path><path d="M606.101 370.916 L621.605 370.916 L621.605 363.571 L606.101 363.571 Z M606.101 363.571 M597.317 352.052 L597.317 385.651 L623.621 385.651 L623.621 378.26 L606.821 378.26 L606.821 352.052 Z" fill="#ffffff"></path><path d="M647.766 359.252 C649.045 359.252 650.238 359.476 651.342 359.924 C652.446 360.371 653.406 361.02 654.222 361.868 C655.038 362.715 655.678 363.724 656.142 364.892 C656.605 366.06 656.838 367.38 656.838 368.852 C656.838 370.323 656.605 371.644 656.142 372.812 C655.678 373.98 655.038 374.987 654.222 375.836 C653.406 376.684 652.446 377.331 651.342 377.779 C650.238 378.228 649.045 378.452 647.766 378.452 C646.486 378.452 645.294 378.228 644.19 377.779 C643.086 377.331 642.118 376.684 641.286 375.836 C640.454 374.987 639.813 373.98 639.366 372.812 C638.917 371.644 638.694 370.323 638.694 368.852 C638.694 367.38 638.917 366.06 639.366 364.892 C639.813 363.724 640.454 362.715 641.286 361.868 C642.118 361.02 643.086 360.371 644.19 359.924 C645.294 359.476 646.486 359.252 647.766 359.252 M647.766 351.38 C645.109 351.38 642.637 351.812 640.35 352.676 C638.061 353.54 636.085 354.764 634.422 356.348 C632.758 357.932 631.454 359.787 630.51 361.916 C629.565 364.044 629.094 366.371 629.094 368.899 C629.094 371.396 629.565 373.7 630.51 375.812 C631.454 377.924 632.758 379.772 634.422 381.356 C636.085 382.939 638.053 384.164 640.326 385.027 C642.598 385.892 645.078 386.324 647.766 386.324 C650.454 386.324 652.933 385.892 655.206 385.027 C657.477 384.164 659.446 382.947 661.11 381.38 C662.773 379.812 664.078 377.972 665.022 375.859 C665.965 373.748 666.438 371.428 666.438 368.899 C666.438 366.339 665.974 363.995 665.046 361.868 C664.117 359.739 662.814 357.892 661.134 356.324 C659.454 354.756 657.477 353.54 655.206 352.676 C652.933 351.812 650.454 351.38 647.766 351.38" fill="#ffffff"></path><path d="M695.237 352.052 L686.885 364.292 L697.013 364.292 L705.413 352.052 Z M684.005 363.908 L679.733 368.324 L689.237 368.324 C691.221 368.324 692.709 368.756 693.701 369.62 C694.693 370.484 695.189 371.699 695.189 373.268 C695.189 374.772 694.693 375.963 693.701 376.844 C692.709 377.724 691.221 378.164 689.237 378.164 L679.733 378.164 L684.005 382.532 Z M674.501 352.052 L674.501 385.652 L689.477 385.652 C694.404 385.652 698.181 384.548 700.805 382.34 C703.428 380.132 704.741 377.108 704.741 373.268 C704.741 370.676 704.141 368.468 702.941 366.644 C701.741 364.82 700.021 363.42 697.781 362.444 C695.541 361.467 692.885 360.98 689.813 360.98 L679.733 360.98 L684.005 365.012 L684.005 352.052 Z" fill="#ffffff"></path><path d="M741.796 351.38 C739.012 351.38 736.348 351.724 733.804 352.412 C731.26 353.1 729.204 353.972 727.636 355.027 L730.756 362.084 C732.26 361.124 733.996 360.332 735.964 359.708 C737.932 359.084 739.892 358.772 741.844 358.772 C743.188 358.772 744.252 358.884 745.036 359.108 C745.82 359.331 746.396 359.651 746.764 360.068 C747.131 360.484 747.316 360.98 747.316 361.556 C747.316 362.292 746.963 362.876 746.26 363.308 C745.556 363.74 744.635 364.108 743.5 364.412 C742.364 364.716 741.131 365.004 739.804 365.276 C738.476 365.547 737.124 365.907 735.748 366.356 C734.372 366.804 733.124 367.396 732.004 368.132 C730.883 368.867 729.98 369.827 729.292 371.012 C728.604 372.195 728.26 373.684 728.26 375.476 C728.26 377.46 728.804 379.268 729.892 380.9 C730.98 382.532 732.628 383.844 734.836 384.836 C737.044 385.827 739.796 386.324 743.092 386.324 C745.3 386.324 747.467 386.075 749.596 385.58 C751.724 385.083 753.604 384.339 755.236 383.348 L752.356 376.34 C750.755 377.235 749.171 377.892 747.604 378.308 C746.036 378.724 744.516 378.932 743.044 378.932 C741.732 378.932 740.675 378.788 739.876 378.5 C739.076 378.212 738.5 377.844 738.148 377.396 C737.796 376.947 737.62 376.467 737.62 375.956 C737.62 375.188 737.972 374.588 738.676 374.155 C739.379 373.724 740.292 373.371 741.412 373.1 C742.532 372.827 743.772 372.548 745.132 372.26 C746.492 371.972 747.844 371.611 749.188 371.18 C750.532 370.748 751.772 370.172 752.908 369.452 C754.044 368.732 754.964 367.787 755.668 366.62 C756.372 365.451 756.724 363.987 756.724 362.228 C756.724 360.276 756.172 358.476 755.068 356.828 C753.964 355.18 752.308 353.859 750.1 352.868 C747.892 351.876 745.124 351.38 741.796 351.38" fill="#ffffff"></path><path d="M770.74 352.052 L770.74 378.116 L760.42 378.116 L760.42 385.652 L790.516 385.652 L790.516 378.116 L780.244 378.116 L780.244 352.052 Z" fill="#ffffff"></path><path d="M799.491 358.628 L801.939 365.588 L818.354 365.588 L820.803 358.628 Z M791.379 352.052 L806.211 385.651 L815.571 385.651 L830.452 352.052 L820.563 352.052 L808.947 380.996 L812.69 380.996 L801.075 352.052 Z" fill="#ffffff"></path><path d="M841.636 352.052 L841.636 378.116 L831.317 378.116 L831.317 385.652 L861.412 385.652 L861.412 378.116 L851.14 378.116 L851.14 352.052 Z" fill="#ffffff"></path><path d="M876.723 372.644 L892.324 372.644 L892.324 365.588 L876.723 365.588 Z M876.723 365.588 M868.035 352.052 L868.035 385.651 L894.339 385.651 L894.339 378.26 L877.394 378.26 L877.394 359.443 L894.963 359.443 L894.963 352.052 Z" fill="#ffffff"></path><path d="M932.065 351.38 C929.281 351.38 926.617 351.724 924.073 352.412 C921.529 353.1 919.472 353.972 917.905 355.027 L921.025 362.084 C922.529 361.124 924.265 360.332 926.233 359.708 C928.201 359.084 930.161 358.772 932.113 358.772 C933.457 358.772 934.52 358.884 935.305 359.108 C936.088 359.331 936.665 359.651 937.033 360.068 C937.401 360.484 937.586 360.98 937.586 361.556 C937.586 362.292 937.233 362.876 936.529 363.308 C935.825 363.74 934.905 364.108 933.769 364.412 C932.632 364.716 931.401 365.004 930.073 365.276 C928.745 365.547 927.392 365.907 926.017 366.356 C924.641 366.804 923.393 367.396 922.273 368.132 C921.153 368.867 920.249 369.827 919.561 371.012 C918.873 372.195 918.529 373.684 918.529 375.476 C918.529 377.46 919.073 379.268 920.161 380.9 C921.249 382.532 922.897 383.844 925.105 384.836 C927.313 385.827 930.065 386.324 933.361 386.324 C935.569 386.324 937.737 386.075 939.865 385.58 C941.993 385.083 943.873 384.339 945.505 383.348 L942.625 376.34 C941.025 377.235 939.441 377.892 937.873 378.308 C936.305 378.724 934.785 378.932 933.313 378.932 C932.001 378.932 930.945 378.788 930.145 378.5 C929.344 378.212 928.769 377.844 928.417 377.396 C928.065 376.947 927.889 376.467 927.889 375.956 C927.889 375.188 928.241 374.588 928.945 374.155 C929.649 373.724 930.56 373.371 931.681 373.1 C932.8 372.827 934.041 372.548 935.401 372.26 C936.76 371.972 938.113 371.611 939.457 371.18 C940.801 370.748 942.041 370.172 943.177 369.452 C944.312 368.732 945.233 367.787 945.937 366.62 C946.64 365.451 946.993 363.987 946.993 362.228 C946.993 360.276 946.441 358.476 945.337 356.828 C944.233 355.18 942.577 353.859 940.369 352.868 C938.161 351.876 935.393 351.38 932.065 351.38" fill="#ffffff"></path><path d="M963.073 372.644 L978.674 372.644 L978.674 365.588 L963.073 365.588 Z M963.073 365.588 M954.386 352.052 L954.386 385.651 L980.689 385.651 L980.689 378.26 L963.745 378.26 L963.745 359.443 L981.313 359.443 L981.313 352.052 Z" fill="#ffffff"></path><path d="M989.666 352.052 L989.666 385.652 L997.49 385.652 L1015.97 363.284 L1012.273 363.284 L1012.273 385.652 L1021.586 385.652 L1021.586 352.052 L1013.762 352.052 L995.233 374.42 L998.93 374.42 L998.93 352.052 Z" fill="#ffffff"></path><path d="M1035.409 358.628 L1037.856 365.588 L1054.272 365.588 L1056.721 358.628 Z M1027.297 352.052 L1042.129 385.651 L1051.488 385.651 L1066.369 352.052 L1056.48 352.052 L1044.865 380.996 L1048.608 380.996 L1036.993 352.052 Z" fill="#ffffff"></path><path d="M1077.554 352.052 L1077.554 378.116 L1067.235 378.116 L1067.235 385.652 L1097.33 385.652 L1097.33 378.116 L1087.058 378.116 L1087.058 352.052 Z" fill="#ffffff"></path><path d="M1112.641 372.644 L1128.242 372.644 L1128.242 365.588 L1112.641 365.588 Z M1112.641 365.588 M1103.954 352.052 L1103.954 385.651 L1130.258 385.651 L1130.258 378.26 L1113.313 378.26 L1113.313 359.443 L1130.882 359.443 L1130.882 352.052 Z" fill="#ffffff"></path><path d="M749.519 933.419 C757.811 926.289 766.732 918.295 774.759 910.81 C776.822 908.887 778.979 907.055 781.106 905.194 C785.379 901.45 788.916 897.035 792.132 892.349 C793.727 889.975 795.239 887.519 796.473 884.796 L795.97 884.31 C788.348 888.362 781.664 893.833 776.121 900.38 C773.074 904.233 768.467 909.568 765.201 913.326 C759.912 919.603 754.111 926.546 749.015 932.933 C749.015 932.933 749.519 933.419 749.519 933.419" fill="#e2a413"></path><path d="M669.222 862.416 C678.744 861.135 688.231 859.667 697.737 858.3 L711.97 856.121 L726.184 853.839 C730.921 853.071 735.682 852.429 740.435 851.747 C745.185 851.051 749.896 850.15 754.565 849.036 C759.234 847.92 763.878 846.676 768.493 845.283 C773.103 843.867 777.696 842.358 782.211 840.453 L782.078 839.766 C777.178 839.691 772.354 840.012 767.549 840.427 C762.748 840.864 757.976 841.451 753.229 842.165 C748.483 842.881 743.778 843.81 739.112 844.944 C734.45 846.092 729.795 847.281 725.116 848.342 L711.082 851.552 L697.069 854.864 C687.743 857.157 678.398 859.35 669.088 861.729 Z" fill="#e2a413"></path><path d="M981.748 932.932 C974.912 924.396 967.234 915.201 960.033 906.919 C958.184 904.789 956.428 902.57 954.642 900.379 C951.05 895.978 946.761 892.289 942.191 888.912 C939.873 887.235 937.472 885.638 934.794 884.309 L934.29 884.796 C938.074 892.554 943.308 899.425 949.657 905.193 C953.402 908.372 958.573 913.163 962.214 916.559 C968.303 922.063 975.04 928.103 981.244 933.418 C981.244 933.418 981.748 932.932 981.748 932.932" fill="#e2a413"></path><path d="M1061.675 861.729 C1043.656 857.194 1023.838 852.462 1005.648 848.342 C996.295 846.214 987.051 843.509 977.534 842.165 C967.971 840.772 958.407 839.69 948.685 839.766 C948.685 839.766 948.552 840.453 948.552 840.453 C953.067 842.358 957.66 843.867 962.27 845.283 C971.489 848.04 980.807 850.372 990.329 851.747 C995.082 852.43 999.843 853.071 1004.579 853.84 C1011.654 854.998 1025.936 857.239 1033.027 858.3 C1042.533 859.667 1052.019 861.135 1061.541 862.416 Z" fill="#e2a413"></path><path d="M1019.507 761.493 C1012.219 763.791 1005.001 766.265 997.745 768.645 L986.909 772.335 L976.112 776.122 C972.516 777.392 968.872 778.542 965.244 779.73 C961.622 780.936 958.072 782.321 954.609 783.924 C951.144 785.523 947.727 787.243 944.366 789.104 C941.014 790.987 937.697 792.958 934.529 795.304 L934.787 795.954 C938.701 795.482 942.465 794.636 946.195 793.701 C949.916 792.744 953.58 791.647 957.197 790.428 C960.815 789.214 964.346 787.782 967.806 786.169 C971.259 784.54 974.697 782.873 978.182 781.325 L988.63 776.66 L999.039 771.897 C1005.946 768.641 1012.891 765.48 1019.766 762.143 Z" fill="#e2a413"></path><path d="M795.619 794.853 C789.322 790.278 782.522 786.746 775.539 783.473 C768.634 780.188 761.223 778.206 754.036 775.671 C740.045 770.723 724.726 765.555 710.641 761.042 L710.382 761.693 C723.702 768.083 738.41 774.864 751.965 780.874 C755.451 782.422 758.889 784.09 762.342 785.719 C769.27 788.979 776.541 791.32 783.953 793.25 C787.682 794.185 791.447 795.032 795.36 795.503 Z" fill="#e2a413"></path></g>
</svg>